<svg xmlns="http://www.w3.org/2000/svg" xmlns:xlink="http://www.w3.org/1999/xlink" width="496" height="398" viewBox="0 0 496 398">
  <defs>
    <clipPath id="clip-path">
      <rect id="Rectangle_7" data-name="Rectangle 7" width="496" height="398" transform="translate(761 265)" fill="#fff" stroke="#707070" stroke-width="1"/>
    </clipPath>
  </defs>
  <g id="Mask_Group_2" data-name="Mask Group 2" transform="translate(-761 -265)" clip-path="url(#clip-path)">
    <g id="undraw_Celebration_re_kc9k" transform="translate(761 269.118)">
      <path id="Path_33" data-name="Path 33" d="M257.319,221.793c-2.654-3.439-6.405-6.621-6.643-10.865-.218-3.892,2.685-7.757,1.461-11.481-.941-2.863-4.046-4.591-7.08-5.506a27.518,27.518,0,0,0-17.684.681l.307-.217c-3.454-1.23-7.491.04-10.208,2.392s-4.333,5.613-5.586,8.881-2.224,6.655-3.965,9.718-4.407,5.849-7.925,6.908a4.976,4.976,0,0,0,7.018,1.536,8.876,8.876,0,0,0,1.477-1.527l4.32-5.253c1.482,2.635-.732,6.272,1.089,8.712.939,1.258,2.654,1.736,4.247,2.079a76.827,76.827,0,0,0,37.585-1.394,3.668,3.668,0,0,0,2.473-1.577C258.675,223.854,258.017,222.7,257.319,221.793Z" transform="translate(-107.187 -71.505)" fill="#2f2e41"/>
      <path id="Path_34" data-name="Path 34" d="M292.621,235.214a6.667,6.667,0,0,0-.152,1.039l-27.213,15.7-6.614-3.808-7.051,9.231,11.054,7.879a5.068,5.068,0,0,0,6.08-.148l28.061-22.137a6.65,6.65,0,1,0-4.166-7.755Z" transform="translate(-107.187 -71.505)" fill="#ffb7b7"/>
      <path id="Path_35" data-name="Path 35" d="M264.348,252.7l-8.8,11.4a2.851,2.851,0,0,1-4.31.236l-9.957-10.339a7.917,7.917,0,1,1,9.709-12.508l12.488,6.983a2.851,2.851,0,0,1,.865,4.229Z" transform="translate(-107.187 -71.505)" fill="#673ab7"/>
      <path id="Path_36" data-name="Path 36" d="M145.057,379.8h7.766l3.694-29.956H145.055Z" fill="#ffb7b7"/>
      <path id="Path_37" data-name="Path 37" d="M250.262,448.771h15.3a9.747,9.747,0,0,1,9.747,9.746v.317H250.262Z" transform="translate(-107.187 -71.505)" fill="#2f2e41"/>
      <path id="Path_38" data-name="Path 38" d="M91.844,379.8H99.61l3.694-29.956H91.843Z" fill="#ffb7b7"/>
      <path id="Path_39" data-name="Path 39" d="M197.049,448.771h15.3a9.747,9.747,0,0,1,9.747,9.746v.317H197.05Z" transform="translate(-107.187 -71.505)" fill="#2f2e41"/>
      <circle id="Ellipse_3" data-name="Ellipse 3" cx="13.422" cy="13.422" r="13.422" transform="translate(112.245 156.466) rotate(-83.735)" fill="#ffb7b7"/>
      <path id="Path_40" data-name="Path 40" d="M242.091,236.214,250,240.131s8.835,15.354,3.767,29.924c-2.46,7.074,4.468,29.624,4.468,29.624S268.969,401.819,269,433.344c-13.337,2.051-26.007,4.584-26.64-1.75s-7.568-81.236-7.568-81.236-9.536,83.136-17.138,84.4-22.805-.633-22.805-.633,12.07-121.779,20.305-129.381l1.267-6.335-.034-56.863,9.488-4.528Z" transform="translate(-107.187 -71.505)" fill="#2f2e41"/>
      <path id="Path_41" data-name="Path 41" d="M213.8,322.539a6.805,6.805,0,0,0,2.085-10.225l9.2-61.3-12.014-.577L205.9,311.484a6.842,6.842,0,0,0,7.9,11.055Z" transform="translate(-107.187 -71.505)" fill="#ffb7b7"/>
      <path id="Path_42" data-name="Path 42" d="M224.823,266.376l-14.369-.907a2.851,2.851,0,0,1-2.608-3.439l2.994-14.038a7.917,7.917,0,1,1,15.8,1.044l1.2,14.257a2.851,2.851,0,0,1-3.02,3.084Z" transform="translate(-107.187 -71.505)" fill="#673ab7"/>
      <path id="Path_43" data-name="Path 43" d="M248.3,207.368a10.239,10.239,0,0,0-4.179-5.778,17.115,17.115,0,0,0-21.879,1.33,11.18,11.18,0,0,0-3.379,5.416,6.643,6.643,0,0,0,1.416,6.049l.268.168a2.417,2.417,0,0,1,1.515-2.517,12.107,12.107,0,0,1,3.09-.693,11.361,11.361,0,0,0,7.7-5.434,12.831,12.831,0,0,0,7.353,7.663c1.774.694,6.646,1.648,8.335.767C250.7,213.216,248.827,209.741,248.3,207.368Z" transform="translate(-107.187 -71.505)" fill="#2f2e41"/>
      <path id="Path_438" data-name="Path 438" d="M149.545,432.8a14.334,14.334,0,0,0,13.842-2.438c4.848-4.069,6.368-10.772,7.6-16.979l3.658-18.361-7.659,5.273c-5.508,3.792-11.14,7.707-14.953,13.2s-5.477,12.992-2.414,18.936" transform="translate(-107.187 -71.505)" fill="#e6e6e6"/>
      <path id="Path_439" data-name="Path 439" d="M150.727,456.31c-.964-7.023-1.956-14.137-1.278-21.235a33.4,33.4,0,0,1,6.44-17.51,29.13,29.13,0,0,1,7.473-6.772c.747-.471,1.435.712.691,1.182A27.692,27.692,0,0,0,153.1,425.191c-2.385,6.065-2.768,12.678-2.357,19.121.248,3.9.776,7.767,1.306,11.634a.709.709,0,0,1-.478.842.689.689,0,0,1-.842-.478Z" transform="translate(-107.187 -71.505)" fill="#f2f2f2"/>
      <path id="Path_442" data-name="Path 442" d="M157.666,445.041a10.552,10.552,0,0,0,9.194,4.747c4.656-.221,8.535-3.469,12.027-6.553l10.331-9.122-6.837-.327c-4.917-.236-9.961-.456-14.644,1.062s-9,5.166-9.859,10.013" transform="translate(-107.187 -71.505)" fill="#e6e6e6"/>
      <path id="Path_443" data-name="Path 443" d="M148,460.347c4.641-8.211,10.023-17.338,19.642-20.255a21.917,21.917,0,0,1,8.261-.853c.877.076.658,1.428-.217,1.352A20.363,20.363,0,0,0,162.5,444.08a34.268,34.268,0,0,0-9.062,9.779c-1.5,2.285-2.845,4.667-4.189,7.046C148.824,461.665,147.568,461.116,148,460.347Z" transform="translate(-107.187 -71.505)" fill="#f2f2f2"/>
      <path id="Path_44" data-name="Path 44" d="M461.606,308.538c-8.709-11.654-24.647-14.467-32.568-8.548s-9.74,22-1.031,33.655c8.061,10.787,22.665,13.729,30.709,9.688a1.009,1.009,0,0,0,0,.383l.453,2.242a1.023,1.023,0,0,0,1.633.6l3.84-3a1.023,1.023,0,0,0-.19-1.73l-2.066-.982a1.011,1.011,0,0,0-.227-.071C468.355,334.222,469.685,319.348,461.606,308.538Z" transform="translate(-107.187 -71.505)" fill="#ccc"/>
      <path id="Path_45" data-name="Path 45" d="M442.557,304.138a16.831,16.831,0,0,1,14.1,18.4c-.094.983,1.441.976,1.534,0a18.4,18.4,0,0,0-15.223-19.881C442,302.494,441.584,303.972,442.557,304.138Z" transform="translate(-107.187 -71.505)" fill="#fff"/>
      <path id="Path_46" data-name="Path 46" d="M475.8,107.085c7.614-12.4,4.341-28.248-4.085-33.422s-24.043-.925-31.656,11.472c-7.047,11.475-4.387,26.134,2.339,32.116a1.01,1.01,0,0,0-.358.137l-1.916,1.25a1.023,1.023,0,0,0,.042,1.74l4.207,2.461a1.023,1.023,0,0,0,1.537-.816l.15-2.283a1.012,1.012,0,0,0-.018-.238C454.426,122.843,468.738,118.585,475.8,107.085Z" transform="translate(-107.187 -71.505)" fill="#ccc"/>
      <path id="Path_47" data-name="Path 47" d="M472.854,87.758a16.831,16.831,0,0,1-11.894,19.9c-.948.276-.375,1.7.567,1.426A18.4,18.4,0,0,0,474.38,87.591C474.176,86.632,472.649,86.792,472.854,87.758Z" transform="translate(-107.187 -71.505)" fill="#fff"/>
      <path id="Path_48" data-name="Path 48" d="M340.871,165.907c-.637-14.535-12.226-25.832-22.1-25.4s-20.435,12.7-19.8,27.235c.589,13.454,11,24.107,19.927,25.3a1.011,1.011,0,0,0-.219.314l-.887,2.108a1.023,1.023,0,0,0,1.01,1.418l4.863-.318a1.023,1.023,0,0,0,.817-1.537l-1.154-1.975a1.014,1.014,0,0,0-.148-.187C331.99,190.934,341.462,179.39,340.871,165.907Z" transform="translate(-107.187 -71.505)" fill="#673ab7"/>
      <path id="Path_49" data-name="Path 49" d="M327.6,151.547a16.831,16.831,0,0,1,1.291,23.144c-.63.759.642,1.618,1.268.864a18.4,18.4,0,0,0-1.389-25C328.069,149.874,326.893,150.862,327.6,151.547Z" transform="translate(-107.187 -71.505)" fill="#fff"/>
      <path id="Path_50" data-name="Path 50" d="M386.163,262.328a24.143,24.143,0,0,1-18.884-11.186c-.572-.914-1.318-1.918-.922-3.043a2,2,0,0,1,2.073-1.385,2.622,2.622,0,0,1,.271,5.053c-2.641,1.126-5.305-.614-7.456-2-4.9-3.166-10.292-6.029-16.232-6.39-5.5-.334-11.388,1.821-14.444,6.586-.535.834.793,1.6,1.325.775,3.031-4.726,9.159-6.423,14.487-5.693a28.165,28.165,0,0,1,9.065,3.078c1.464.76,2.885,1.6,4.276,2.488a27.288,27.288,0,0,0,4.194,2.4c2.446,1,5.684.926,7.392-1.387a4.212,4.212,0,0,0-2.3-6.357,3.6,3.6,0,0,0-4.22,4.285,10.507,10.507,0,0,0,1.964,3.553,25.68,25.68,0,0,0,19.414,10.756c.987.049.984-1.486,0-1.535Z" transform="translate(-107.187 -71.505)" fill="#ccc"/>
      <path id="Path_51" data-name="Path 51" d="M533.535,156.6c4.2-1.954,9.359-2.6,13.634-.779s7.189,6.471,5.807,10.591c-.627,1.868-2.054,3.7-1.5,5.591.428,1.452,1.921,2.411,3.388,3.092A12.622,12.622,0,0,1,559,177.5c1.06,1.15,1.282,3.129-.043,4.02-.436.294-.982.433-1.405.743a2.233,2.233,0,0,0-.689,2.5,5.263,5.263,0,0,0,1.688,2.22c1.5,1.3,3.491,2.781,3.025,4.623a3.243,3.243,0,0,1-2.188,2.047,10.873,10.873,0,0,1-3.213.424l-44.378,1.4a16.825,16.825,0,0,1-4.382-.245,5.187,5.187,0,0,1-3.441-2.312c-.85-1.573-.292-3.511.758-4.98a47.226,47.226,0,0,1,3.762-3.976c1.227-1.349,2.231-3.033,2.015-4.776-.173-1.4-1.093-2.6-1.754-3.869s-1.044-2.852-.189-4.019c1.206-1.644,4.1-1.5,5.471-3.027,1.035-1.156.835-2.82.938-4.31a10.457,10.457,0,0,1,6.263-8.544,12.331,12.331,0,0,1,11.22.764Z" transform="translate(-107.187 -71.505)" fill="#2f2e41"/>
      <path id="Path_52" data-name="Path 52" d="M480.392,262.526v7.258L452.4,273.236V262.524Z" fill="#9e616a"/>
      <path id="Path_53" data-name="Path 53" d="M594.611,332.18v23.4h-.3a9.109,9.109,0,0,1-9.105-9.109h0V332.179Z" transform="translate(-107.187 -71.505)" fill="#2f2e41"/>
      <path id="Path_54" data-name="Path 54" d="M445.787,274.871l-1.782,7.035-27.984-3.525L418.651,268Z" fill="#9e616a"/>
      <path id="Path_55" data-name="Path 55" d="M560.248,346.308,554.5,368.993l-.287-.073a9.109,9.109,0,0,1-6.594-11.066h0L551.131,344Z" transform="translate(-107.187 -71.505)" fill="#2f2e41"/>
      <path id="Path_56" data-name="Path 56" d="M545.827,264.988l1.511,1.575S557.2,274.3,549.9,294.67l-11.937,34.388,40.01,1.56-.857,15.714S519.1,349.558,519.6,340s2.648-44.969,2.648-44.969L510.2,285.346l2.907-16.374Z" transform="translate(-107.187 -71.505)" fill="#2f2e41"/>
      <path id="Path_57" data-name="Path 57" d="M514.833,280.594l-4.635,4.752-15.541,42.72s-2.368,10.655,2.96,13.023S537.226,356.7,537.226,356.7l3.5-12.6L514.312,328.25l12.312-16.167,1.853-25.481Z" transform="translate(-107.187 -71.505)" fill="#2f2e41"/>
      <path id="Path_58" data-name="Path 58" d="M515.081,205.232l39.446-7.887.857,21.642-10.218,21.779,2.173,25.8-35.353,6.177,1.107-33.922s-9.494-13.393-3.9-26.893Z" transform="translate(-107.187 -71.505)" fill="#e4e4e4"/>
      <path id="Path_59" data-name="Path 59" d="M603.041,153.893a6.359,6.359,0,0,1-5.974,7.707L559.24,205.463l-8.795-10.673,39.948-39.76a6.394,6.394,0,0,1,12.648-1.137Z" transform="translate(-107.187 -71.505)" fill="#9e616a"/>
      <path id="Path_60" data-name="Path 60" d="M567.474,200.677a2.848,2.848,0,0,1-.942,2.179L555.9,212.431a7.919,7.919,0,1,1-12.239-10.052l7.425-12.289a2.851,2.851,0,0,1,4.257-.724l11.1,9.173a2.848,2.848,0,0,1,1.034,2.137Z" transform="translate(-107.187 -71.505)" fill="#e4e4e4"/>
      <path id="Path_61" data-name="Path 61" d="M453.228,256.975a6.359,6.359,0,0,1,7.063-6.723l43.98-37.691,7.093,11.872L465.9,257.748a6.394,6.394,0,0,1-12.675-.774Z" transform="translate(-107.187 -71.505)" fill="#9e616a"/>
      <path id="Path_62" data-name="Path 62" d="M495.41,216.056a2.848,2.848,0,0,1,1.259-2.013l11.953-7.871a7.919,7.919,0,1,1,10.592,11.775l-9.184,11.036a2.851,2.851,0,0,1-4.317.077l-9.6-10.735a2.848,2.848,0,0,1-.7-2.269Z" transform="translate(-107.187 -71.505)" fill="#e4e4e4"/>
      <circle id="Ellipse_4" data-name="Ellipse 4" cx="14.539" cy="14.539" r="14.539" transform="translate(410.166 94.55)" fill="#9e616a"/>
      <path id="Path_63" data-name="Path 63" d="M546.766,178.527a9.013,9.013,0,0,1-7.926-9.537,7.7,7.7,0,0,1-6.595,7.841c-2.106.232-4.415-.405-6.248.657-2.03,1.177-2.68,4.035-4.8,5.051-2.044.982-4.64-.357-5.649-2.388a9.049,9.049,0,0,1-.093-6.636,18.737,18.737,0,0,1,31.191-7.681,12,12,0,0,1,3.712,7.144,7.037,7.037,0,0,1-3.466,6.911Z" transform="translate(-107.187 -71.505)" fill="#2f2e41"/>
      <path id="Path_64" data-name="Path 64" d="M333.319,459.779H107.778a.592.592,0,1,1,0-1.184H333.319a.592.592,0,1,1,0,1.184Z" transform="translate(-107.187 -71.505)" fill="#cacaca"/>
    </g>
  </g>
</svg>
